<svg xmlns="http://www.w3.org/2000/svg" width="16" height="16" viewBox="0 0 16 16" fill="none"><path fill-rule="evenodd" clip-rule="evenodd" d="M5.5 1H10.5A2.5 2.5 0 0 1 13 3.5V12.5A2.5 2.5 0 0 1 10.5 15H5.5A2.5 2.5 0 0 1 3 12.5V3.5A2.5 2.5 0 0 1 5.5 1ZM4.7 3H6.3A0.7 0.7 0 0 1 7 3.7V5.3A0.7 0.7 0 0 1 6.3 6H4.7A0.7 0.7 0 0 1 4 5.3V3.7A0.7 0.7 0 0 1 4.7 3ZM9.7 3H11.3A0.7 0.7 0 0 1 12 3.7V5.3A0.7 0.7 0 0 1 11.3 6H9.7A0.7 0.7 0 0 1 9 5.3V3.7A0.7 0.7 0 0 1 9.7 3ZM4.7 8H6.3A0.7 0.7 0 0 1 7 8.7V10.3A0.7 0.7 0 0 1 6.3 11H4.7A0.7 0.7 0 0 1 4 10.3V8.7A0.7 0.7 0 0 1 4.7 8ZM9.7 8H11.3A0.7 0.7 0 0 1 12 8.7V10.3A0.7 0.7 0 0 1 11.3 11H9.7A0.7 0.7 0 0 1 9 10.3V8.7A0.7 0.7 0 0 1 9.7 8ZM6.0858 12.5H5A0.5 0.5 0 0 0 5 13.5H6.0858A1.5 1.5 0 0 0 8.9142 13.5H11A0.5 0.5 0 0 0 11 12.5H8.9142A1.5 1.5 0 0 0 6.0858 12.5Z" fill="#6C707E"/><path d="M9.7 3H11.3A0.7 0.7 0 0 1 12 3.7V5.3A0.7 0.7 0 0 1 11.3 6H9.7A0.7 0.7 0 0 1 9 5.3V3.7A0.7 0.7 0 0 1 9.7 3Z" fill="#6C707E" fill-opacity=".45"/><path d="M4.7 8H6.3A0.7 0.7 0 0 1 7 8.7V10.3A0.7 0.7 0 0 1 6.3 11H4.7A0.7 0.7 0 0 1 4 10.3V8.7A0.7 0.7 0 0 1 4.7 8Z" fill="#6C707E" fill-opacity=".45"/></svg>
